<svg xmlns="http://www.w3.org/2000/svg" viewBox="0 0 32 32" width="32" height="32" shape-rendering="crispEdges">
  <path fill="#000000" d="
    M22,2 h2 v1 h-2 z M24,3 h1 v1 h-1 z M25,4 h1 v2 h-1 z M26,6 h1 v1 h-1 z 
    M20,4 h1 v1 h-1 z M21,5 h1 v1 h-1 z M22,6 h1 v1 h-1 z
    M23,4 h1 v1 h-1 z M24,6 h1 v1 h-1 z M22,8 h1 v1 h-1 z
    M21,9 h2 v1 h-2 z M20,10 h1 v2 h-1 z M19,12 h1 v1 h-1 z
    M18,11 h1 v1 h-1 z M17,12 h1 v2 h-1 z M16,14 h1 v1 h-1 z
    M15,13 h1 v1 h-1 z M14,14 h1 v2 h-1 z M13,16 h1 v1 h-1 z
    M13,13 h2 v1 h-2 z M12,14 h1 v2 h-1 z M11,16 h1 v1 h-1 z
    M12,17 h1 v1 h-1 z M15,15 h1 v2 h-1 z 
    M11,18 h1 v1 h-1 z M12,19 h1 v1 h-1 z M16,17 h1 v1 h-1 z
    M13,11 h3 v2 h-3 z M12,13 h1 v1 h-1 z M16,13 h1 v1 h-1 z
    M10,17 h1 v1 h-1 z M9,18 h1 v1 h-1 z M8,19 h1 v1 h-1 z M7,20 h1 v1 h-1 z
    M6,21 h1 v1 h-1 z M17,18 h2 v2 h-2 z M19,20 h1 v2 h-1 z M19,22 h1 v3 h-1 z
    M18,25 h1 v2 h-1 z M17,27 h1 v1 h-1 z M16,28 h1 v1 h-1 z
    M14,29 h2 v1 h-2 z M11,29 h3 v1 h-3 z M9,28 h2 v1 h-2 z M8,27 h1 v1 h-1 z
    M7,26 h1 v1 h-1 z M6,24 h1 v2 h-1 z M6,22 h1 v2 h-1 z
    M13,18 h3 v3 h-3 z M12,18 h1 v3 h-1 z M13,21 h3 v1 h-3 z
    M10,23 h1 v1 h-1 z M11,24 h1 v1 h-1 z M12,25 h2 v1 h-2 z 
    M12,24 h1 v1 h-1 z M10,25 h1 v1 h-1 z M11,26 h1 v1 h-1 z
  "/>
</svg>
